<svg xmlns="http://www.w3.org/2000/svg" viewBox="0 0 300 200" width="300" height="200">
  <rect width="300" height="200" fill="#eef2f7"/>
  <rect x="70" y="70" width="160" height="60" rx="8" fill="#2b3a55"/>
  <g fill="#5b7fd1">
    <rect x="80" y="80" width="14" height="12" rx="2"/>
    <rect x="98" y="80" width="14" height="12" rx="2"/>
    <rect x="116" y="80" width="14" height="12" rx="2"/>
    <rect x="134" y="80" width="14" height="12" rx="2"/>
    <rect x="152" y="80" width="14" height="12" rx="2"/>
    <rect x="170" y="80" width="14" height="12" rx="2"/>
    <rect x="188" y="80" width="14" height="12" rx="2"/>
    <rect x="206" y="80" width="14" height="12" rx="2"/>
    <rect x="80" y="98" width="14" height="12" rx="2"/>
    <rect x="98" y="98" width="14" height="12" rx="2"/>
    <rect x="116" y="98" width="14" height="12" rx="2"/>
    <rect x="134" y="98" width="14" height="12" rx="2"/>
    <rect x="152" y="98" width="14" height="12" rx="2"/>
    <rect x="170" y="98" width="14" height="12" rx="2"/>
    <rect x="188" y="98" width="14" height="12" rx="2"/>
    <rect x="206" y="98" width="14" height="12" rx="2"/>
    <rect x="98" y="116" width="104" height="10" rx="2"/>
  </g>
</svg>
